<?xml version="1.0" encoding="UTF-8"?>
<svg xmlns="http://www.w3.org/2000/svg" xmlns:xlink="http://www.w3.org/1999/xlink" width="3302.25" height="3304.93" viewBox="0 0 3302.25 3304.93">
<defs>
<clipPath id="clip-0">
<path clip-rule="nonzero" d="M 0 0 L 3302.25 0 L 3302.25 3304.929688 L 0 3304.929688 Z M 0 0 "/>
</clipPath>
<clipPath id="clip-1">
<path clip-rule="nonzero" d="M 1655 1625 L 1752 1625 L 1752 1723 L 1655 1723 Z M 1655 1625 "/>
</clipPath>
<clipPath id="clip-2">
<path clip-rule="evenodd" d="M 1729.109375 1632.300781 C 1715.671875 1624.238281 1704.898438 1624.238281 1691.449219 1626.929688 C 1678 1629.621094 1667.261719 1637.671875 1661.871094 1648.429688 C 1656.5 1659.179688 1653.808594 1672.621094 1656.5 1686.058594 C 1659.199219 1699.511719 1667.261719 1710.28125 1678 1715.671875 C 1688.769531 1721.019531 1702.21875 1723.730469 1715.671875 1721.019531 C 1729.109375 1718.339844 1739.859375 1710.28125 1745.238281 1699.511719 C 1750.628906 1688.769531 1753.300781 1675.320312 1750.628906 1661.871094 C 1747.921875 1648.429688 1739.859375 1637.671875 1729.109375 1632.300781 "/>
</clipPath>
<linearGradient id="linear-pattern-0" gradientUnits="userSpaceOnUse" x1="-0.0166189" y1="0" x2="1.016763" y2="0" gradientTransform="matrix(-96.2761, 0.00000842, -0.00000842, -96.2761, 1751.7, 1673.7)">
<stop offset="0" stop-color="rgb(28.234863%, 72.155762%, 36.862183%)" stop-opacity="1"/>
<stop offset="0.03125" stop-color="rgb(28.092957%, 72.050476%, 36.862183%)" stop-opacity="1"/>
<stop offset="0.046875" stop-color="rgb(27.806091%, 71.838379%, 36.862183%)" stop-opacity="1"/>
<stop offset="0.0625" stop-color="rgb(27.514648%, 71.62323%, 36.862183%)" stop-opacity="1"/>
<stop offset="0.078125" stop-color="rgb(27.223206%, 71.408081%, 36.862183%)" stop-opacity="1"/>
<stop offset="0.09375" stop-color="rgb(26.931763%, 71.192932%, 36.862183%)" stop-opacity="1"/>
<stop offset="0.109375" stop-color="rgb(26.64032%, 70.977783%, 36.862183%)" stop-opacity="1"/>
<stop offset="0.125" stop-color="rgb(26.348877%, 70.762634%, 36.862183%)" stop-opacity="1"/>
<stop offset="0.140625" stop-color="rgb(26.057434%, 70.547485%, 36.862183%)" stop-opacity="1"/>
<stop offset="0.15625" stop-color="rgb(25.765991%, 70.332336%, 36.862183%)" stop-opacity="1"/>
<stop offset="0.171875" stop-color="rgb(25.474548%, 70.117188%, 36.862183%)" stop-opacity="1"/>
<stop offset="0.1875" stop-color="rgb(25.184631%, 69.900513%, 36.862183%)" stop-opacity="1"/>
<stop offset="0.203125" stop-color="rgb(24.893188%, 69.685364%, 36.862183%)" stop-opacity="1"/>
<stop offset="0.21875" stop-color="rgb(24.601746%, 69.470215%, 36.862183%)" stop-opacity="1"/>
<stop offset="0.234375" stop-color="rgb(24.310303%, 69.255066%, 36.862183%)" stop-opacity="1"/>
<stop offset="0.25" stop-color="rgb(24.01886%, 69.039917%, 36.862183%)" stop-opacity="1"/>
<stop offset="0.265625" stop-color="rgb(23.727417%, 68.824768%, 36.862183%)" stop-opacity="1"/>
<stop offset="0.28125" stop-color="rgb(23.435974%, 68.609619%, 36.862183%)" stop-opacity="1"/>
<stop offset="0.296875" stop-color="rgb(23.144531%, 68.39447%, 36.862183%)" stop-opacity="1"/>
<stop offset="0.3125" stop-color="rgb(22.854614%, 68.179321%, 36.862183%)" stop-opacity="1"/>
<stop offset="0.328125" stop-color="rgb(22.563171%, 67.964172%, 36.862183%)" stop-opacity="1"/>
<stop offset="0.34375" stop-color="rgb(22.271729%, 67.749023%, 36.862183%)" stop-opacity="1"/>
<stop offset="0.359375" stop-color="rgb(21.980286%, 67.532349%, 36.862183%)" stop-opacity="1"/>
<stop offset="0.375" stop-color="rgb(21.688843%, 67.3172%, 36.862183%)" stop-opacity="1"/>
<stop offset="0.390625" stop-color="rgb(21.3974%, 67.102051%, 36.862183%)" stop-opacity="1"/>
<stop offset="0.40625" stop-color="rgb(21.105957%, 66.886902%, 36.862183%)" stop-opacity="1"/>
<stop offset="0.421875" stop-color="rgb(20.814514%, 66.671753%, 36.862183%)" stop-opacity="1"/>
<stop offset="0.4375" stop-color="rgb(20.523071%, 66.456604%, 36.862183%)" stop-opacity="1"/>
<stop offset="0.453125" stop-color="rgb(20.233154%, 66.241455%, 36.862183%)" stop-opacity="1"/>
<stop offset="0.46875" stop-color="rgb(19.941711%, 66.026306%, 36.862183%)" stop-opacity="1"/>
<stop offset="0.484375" stop-color="rgb(19.650269%, 65.811157%, 36.862183%)" stop-opacity="1"/>
<stop offset="0.5" stop-color="rgb(19.358826%, 65.596008%, 36.862183%)" stop-opacity="1"/>
<stop offset="0.515625" stop-color="rgb(19.067383%, 65.380859%, 36.862183%)" stop-opacity="1"/>
<stop offset="0.53125" stop-color="rgb(18.77594%, 65.164185%, 36.862183%)" stop-opacity="1"/>
<stop offset="0.546875" stop-color="rgb(18.484497%, 64.949036%, 36.862183%)" stop-opacity="1"/>
<stop offset="0.5625" stop-color="rgb(18.193054%, 64.733887%, 36.862183%)" stop-opacity="1"/>
<stop offset="0.578125" stop-color="rgb(17.901611%, 64.518738%, 36.862183%)" stop-opacity="1"/>
<stop offset="0.59375" stop-color="rgb(17.611694%, 64.303589%, 36.862183%)" stop-opacity="1"/>
<stop offset="0.609375" stop-color="rgb(17.320251%, 64.08844%, 36.862183%)" stop-opacity="1"/>
<stop offset="0.625" stop-color="rgb(17.028809%, 63.873291%, 36.862183%)" stop-opacity="1"/>
<stop offset="0.640625" stop-color="rgb(16.737366%, 63.658142%, 36.862183%)" stop-opacity="1"/>
<stop offset="0.65625" stop-color="rgb(16.445923%, 63.442993%, 36.862183%)" stop-opacity="1"/>
<stop offset="0.671875" stop-color="rgb(16.15448%, 63.227844%, 36.862183%)" stop-opacity="1"/>
<stop offset="0.6875" stop-color="rgb(15.863037%, 63.012695%, 36.862183%)" stop-opacity="1"/>
<stop offset="0.703125" stop-color="rgb(15.571594%, 62.796021%, 36.862183%)" stop-opacity="1"/>
<stop offset="0.71875" stop-color="rgb(15.280151%, 62.580872%, 36.862183%)" stop-opacity="1"/>
<stop offset="0.734375" stop-color="rgb(14.990234%, 62.365723%, 36.862183%)" stop-opacity="1"/>
<stop offset="0.75" stop-color="rgb(14.698792%, 62.150574%, 36.862183%)" stop-opacity="1"/>
<stop offset="0.765625" stop-color="rgb(14.407349%, 61.935425%, 36.862183%)" stop-opacity="1"/>
<stop offset="0.78125" stop-color="rgb(14.115906%, 61.720276%, 36.862183%)" stop-opacity="1"/>
<stop offset="0.796875" stop-color="rgb(13.824463%, 61.505127%, 36.862183%)" stop-opacity="1"/>
<stop offset="0.8125" stop-color="rgb(13.53302%, 61.289978%, 36.862183%)" stop-opacity="1"/>
<stop offset="0.828125" stop-color="rgb(13.241577%, 61.074829%, 36.862183%)" stop-opacity="1"/>
<stop offset="0.84375" stop-color="rgb(12.950134%, 60.85968%, 36.862183%)" stop-opacity="1"/>
<stop offset="0.859375" stop-color="rgb(12.658691%, 60.644531%, 36.862183%)" stop-opacity="1"/>
<stop offset="0.875" stop-color="rgb(12.368774%, 60.427856%, 36.862183%)" stop-opacity="1"/>
<stop offset="0.890625" stop-color="rgb(12.077332%, 60.212708%, 36.862183%)" stop-opacity="1"/>
<stop offset="0.90625" stop-color="rgb(11.785889%, 59.997559%, 36.862183%)" stop-opacity="1"/>
<stop offset="0.921875" stop-color="rgb(11.494446%, 59.78241%, 36.862183%)" stop-opacity="1"/>
<stop offset="0.9375" stop-color="rgb(11.203003%, 59.567261%, 36.862183%)" stop-opacity="1"/>
<stop offset="0.953125" stop-color="rgb(10.91156%, 59.352112%, 36.862183%)" stop-opacity="1"/>
<stop offset="0.96875" stop-color="rgb(10.620117%, 59.136963%, 36.862183%)" stop-opacity="1"/>
<stop offset="1" stop-color="rgb(10.334778%, 58.926392%, 36.862183%)" stop-opacity="1"/>
</linearGradient>
<clipPath id="clip-3">
<path clip-rule="nonzero" d="M 115 115 L 3187 115 L 3187 3187 L 115 3187 Z M 115 115 "/>
</clipPath>
<clipPath id="clip-4">
<path clip-rule="evenodd" d="M 2500.890625 2073.320312 L 2729.460938 2205.070312 C 2756.351562 2221.191406 2767.121094 2256.179688 2750.96875 2285.761719 C 2737.519531 2304.558594 2718.710938 2315.328125 2699.878906 2315.328125 C 2689.109375 2315.328125 2681.050781 2312.648438 2670.308594 2307.269531 L 2441.71875 2175.488281 C 2414.820312 2159.371094 2404.078125 2124.410156 2420.210938 2094.828125 C 2436.328125 2067.941406 2471.289062 2057.171875 2500.890625 2073.320312 Z M 2178.199219 2441.71875 L 2309.949219 2670.308594 C 2326.101562 2697.179688 2315.328125 2734.839844 2288.429688 2750.96875 C 2275.011719 2753.671875 2266.921875 2756.351562 2256.179688 2756.351562 C 2237.351562 2756.351562 2215.839844 2745.578125 2205.070312 2726.78125 L 2076 2500.898438 C 2059.871094 2474 2070.621094 2436.328125 2097.511719 2420.210938 C 2124.410156 2404.078125 2162.050781 2414.820312 2178.199219 2441.71875 Z M 2597.679688 1591.960938 L 3011.808594 1591.96875 C 3044.089844 1591.96875 3070.980469 1618.851562 3070.980469 1651.121094 C 3070.980469 1683.390625 3044.089844 1710.28125 3011.808594 1710.28125 L 2597.679688 1710.28125 C 2565.429688 1710.28125 2538.53125 1683.390625 2538.53125 1651.121094 C 2538.53125 1618.851562 2565.429688 1591.960938 2597.679688 1591.960938 Z M 2124.410156 890.109375 C 2113.640625 890.109375 2105.578125 887.410156 2094.828125 882.039062 C 2067.941406 865.898438 2057.171875 830.941406 2073.320312 801.351562 L 2205.070312 572.78125 C 2221.199219 545.898438 2256.179688 535.140625 2285.75 551.269531 C 2312.648438 567.410156 2323.390625 602.371094 2307.269531 631.941406 L 2175.488281 860.519531 C 2164.75 879.351562 2145.921875 890.109375 2124.410156 890.109375 Z M 2471.289062 1237.011719 C 2452.488281 1237.011719 2430.980469 1226.25 2420.210938 1207.421875 C 2404.078125 1180.539062 2414.820312 1142.878906 2441.71875 1126.738281 L 2670.308594 994.980469 C 2697.179688 978.839844 2734.839844 989.601562 2750.96875 1016.5 C 2767.121094 1043.378906 2756.351562 1081.03125 2729.460938 1097.171875 L 2500.890625 1228.941406 C 2490.128906 1234.308594 2482.058594 1237.011719 2471.289062 1237.011719 Z M 1651.121094 763.71875 C 1618.859375 763.71875 1591.96875 736.820312 1591.96875 704.550781 L 1591.96875 293.121094 C 1591.96875 260.839844 1618.859375 233.960938 1651.121094 233.960938 C 1683.390625 233.960938 1710.28125 260.839844 1710.28125 293.121094 L 1710.28125 707.25 C 1710.28125 739.511719 1683.390625 763.71875 1651.121094 763.71875 Z M 884.734375 1207.421875 C 871.285156 1226.25 852.453125 1237.011719 833.636719 1237.011719 C 822.878906 1237.011719 814.816406 1234.308594 804.046875 1228.941406 L 575.488281 1097.171875 C 548.589844 1081.039062 537.835938 1046.070312 553.960938 1016.5 C 570.101562 989.601562 605.0625 978.839844 634.636719 994.980469 L 863.210938 1126.738281 C 890.105469 1142.871094 900.863281 1177.839844 884.734375 1207.421875 Z M 1180.539062 890.109375 C 1161.71875 890.109375 1140.191406 879.351562 1129.441406 860.519531 L 997.675781 631.941406 C 981.535156 605.058594 992.292969 567.410156 1019.191406 551.269531 C 1046.078125 535.140625 1083.71875 545.898438 1099.859375 572.78125 L 1231.628906 801.351562 C 1247.761719 828.25 1237.011719 865.898438 1210.109375 882.039062 C 1199.351562 887.410156 1188.601562 890.109375 1180.539062 890.109375 Z M 115.632812 1651.121094 C 115.632812 2498.191406 804.046875 3186.601562 1651.121094 3186.601562 C 2498.191406 3186.601562 3186.601562 2498.191406 3186.601562 1651.121094 C 3189.308594 804.050781 2498.191406 115.628906 1651.121094 115.628906 C 804.046875 115.628906 115.632812 804.050781 115.632812 1651.121094 Z M 1710.28125 2597.679688 L 1710.28125 3011.808594 C 1710.28125 3044.089844 1683.390625 3070.980469 1651.121094 3070.980469 C 1618.859375 3070.980469 1591.96875 3044.089844 1591.96875 3011.808594 L 1591.96875 2597.679688 C 1591.96875 2565.429688 1618.859375 2538.53125 1651.121094 2538.53125 C 1683.390625 2538.53125 1710.28125 2565.429688 1710.28125 2597.679688 Z M 707.246094 1591.96875 C 739.515625 1591.96875 766.410156 1618.851562 766.410156 1651.121094 C 766.410156 1683.390625 739.515625 1710.28125 707.246094 1710.28125 L 293.121094 1710.28125 C 260.839844 1710.28125 233.957031 1683.390625 233.957031 1651.121094 C 233.957031 1618.851562 260.839844 1591.960938 293.121094 1591.960938 Z M 1210.109375 2417.5 C 1237.011719 2433.648438 1247.761719 2468.609375 1231.628906 2498.191406 L 1099.859375 2726.78125 C 1086.410156 2745.578125 1067.589844 2756.351562 1048.761719 2756.351562 C 1038.011719 2756.351562 1029.941406 2753.648438 1019.191406 2748.289062 C 992.292969 2732.160156 981.535156 2697.179688 997.675781 2667.601562 L 1129.441406 2439.039062 C 1145.578125 2412.140625 1180.539062 2401.378906 1210.109375 2417.5 Z M 804.046875 2073.320312 C 830.945312 2057.171875 868.59375 2067.941406 884.734375 2094.828125 C 900.863281 2121.699219 890.105469 2159.371094 863.210938 2175.488281 L 634.636719 2307.269531 C 626.574219 2312.648438 615.816406 2315.328125 605.0625 2315.328125 C 586.242188 2315.328125 564.71875 2304.558594 553.960938 2285.761719 C 537.835938 2258.859375 548.589844 2221.21875 575.488281 2205.070312 Z M 1721.019531 1508.601562 C 1745.238281 1511.289062 1766.75 1519.359375 1788.261719 1530.128906 C 1809.769531 1540.878906 1825.898438 1557.011719 1839.351562 1575.828125 L 1998.019531 1532.808594 C 2030.300781 1524.738281 2059.871094 1543.558594 2067.941406 1573.148438 C 2076 1605.421875 2057.171875 1634.988281 2027.589844 1643.058594 L 1868.949219 1686.089844 C 1866.25 1710.28125 1858.179688 1731.789062 1847.441406 1753.300781 C 1825.898438 1790.96875 1790.941406 1817.839844 1747.921875 1831.289062 C 1731.789062 1836.671875 1718.339844 1836.671875 1702.21875 1836.671875 C 1672.640625 1836.671875 1645.75 1828.609375 1618.859375 1815.160156 C 1581.210938 1793.648438 1554.320312 1758.691406 1540.871094 1715.640625 C 1522.050781 1648.429688 1548.929688 1578.511719 1602.71875 1538.179688 L 1519.371094 1226.25 C 1511.289062 1193.96875 1530.128906 1164.398438 1559.699219 1156.328125 C 1591.980469 1148.261719 1621.558594 1167.089844 1629.621094 1196.660156 L 1721.019531 1508.601562 "/>
</clipPath>
<linearGradient id="linear-pattern-1" gradientUnits="userSpaceOnUse" x1="-0.000880036" y1="0" x2="1.000902" y2="0" gradientTransform="matrix(-3068.21, 0.000268232, -0.000268232, -3068.21, 3186.61, 1651.12)">
<stop offset="0" stop-color="rgb(28.234863%, 72.155762%, 36.862183%)" stop-opacity="1"/>
<stop offset="0.015625" stop-color="rgb(28.100586%, 72.05658%, 36.862183%)" stop-opacity="1"/>
<stop offset="0.03125" stop-color="rgb(27.825928%, 71.853638%, 36.862183%)" stop-opacity="1"/>
<stop offset="0.046875" stop-color="rgb(27.54364%, 71.646118%, 36.862183%)" stop-opacity="1"/>
<stop offset="0.0625" stop-color="rgb(27.261353%, 71.437073%, 36.862183%)" stop-opacity="1"/>
<stop offset="0.078125" stop-color="rgb(26.979065%, 71.228027%, 36.862183%)" stop-opacity="1"/>
<stop offset="0.09375" stop-color="rgb(26.696777%, 71.018982%, 36.862183%)" stop-opacity="1"/>
<stop offset="0.109375" stop-color="rgb(26.41449%, 70.809937%, 36.862183%)" stop-opacity="1"/>
<stop offset="0.125" stop-color="rgb(26.132202%, 70.602417%, 36.862183%)" stop-opacity="1"/>
<stop offset="0.140625" stop-color="rgb(25.849915%, 70.393372%, 36.862183%)" stop-opacity="1"/>
<stop offset="0.15625" stop-color="rgb(25.567627%, 70.184326%, 36.862183%)" stop-opacity="1"/>
<stop offset="0.171875" stop-color="rgb(25.285339%, 69.975281%, 36.862183%)" stop-opacity="1"/>
<stop offset="0.1875" stop-color="rgb(25.003052%, 69.767761%, 36.862183%)" stop-opacity="1"/>
<stop offset="0.203125" stop-color="rgb(24.720764%, 69.558716%, 36.862183%)" stop-opacity="1"/>
<stop offset="0.21875" stop-color="rgb(24.438477%, 69.34967%, 36.862183%)" stop-opacity="1"/>
<stop offset="0.234375" stop-color="rgb(24.154663%, 69.140625%, 36.862183%)" stop-opacity="1"/>
<stop offset="0.25" stop-color="rgb(23.872375%, 68.93158%, 36.862183%)" stop-opacity="1"/>
<stop offset="0.265625" stop-color="rgb(23.590088%, 68.72406%, 36.862183%)" stop-opacity="1"/>
<stop offset="0.28125" stop-color="rgb(23.3078%, 68.515015%, 36.862183%)" stop-opacity="1"/>
<stop offset="0.296875" stop-color="rgb(23.025513%, 68.305969%, 36.862183%)" stop-opacity="1"/>
<stop offset="0.3125" stop-color="rgb(22.743225%, 68.096924%, 36.862183%)" stop-opacity="1"/>
<stop offset="0.328125" stop-color="rgb(22.460938%, 67.889404%, 36.862183%)" stop-opacity="1"/>
<stop offset="0.34375" stop-color="rgb(22.17865%, 67.680359%, 36.862183%)" stop-opacity="1"/>
<stop offset="0.359375" stop-color="rgb(21.896362%, 67.471313%, 36.862183%)" stop-opacity="1"/>
<stop offset="0.375" stop-color="rgb(21.614075%, 67.262268%, 36.862183%)" stop-opacity="1"/>
<stop offset="0.390625" stop-color="rgb(21.331787%, 67.054749%, 36.862183%)" stop-opacity="1"/>
<stop offset="0.40625" stop-color="rgb(21.0495%, 66.845703%, 36.862183%)" stop-opacity="1"/>
<stop offset="0.421875" stop-color="rgb(20.767212%, 66.636658%, 36.862183%)" stop-opacity="1"/>
<stop offset="0.4375" stop-color="rgb(20.484924%, 66.427612%, 36.862183%)" stop-opacity="1"/>
<stop offset="0.453125" stop-color="rgb(20.202637%, 66.218567%, 36.862183%)" stop-opacity="1"/>
<stop offset="0.46875" stop-color="rgb(19.920349%, 66.011047%, 36.862183%)" stop-opacity="1"/>
<stop offset="0.484375" stop-color="rgb(19.638062%, 65.802002%, 36.862183%)" stop-opacity="1"/>
<stop offset="0.5" stop-color="rgb(19.355774%, 65.592957%, 36.862183%)" stop-opacity="1"/>
<stop offset="0.515625" stop-color="rgb(19.073486%, 65.383911%, 36.862183%)" stop-opacity="1"/>
<stop offset="0.53125" stop-color="rgb(18.791199%, 65.176392%, 36.862183%)" stop-opacity="1"/>
<stop offset="0.546875" stop-color="rgb(18.507385%, 64.967346%, 36.862183%)" stop-opacity="1"/>
<stop offset="0.5625" stop-color="rgb(18.225098%, 64.758301%, 36.862183%)" stop-opacity="1"/>
<stop offset="0.578125" stop-color="rgb(17.94281%, 64.549255%, 36.862183%)" stop-opacity="1"/>
<stop offset="0.59375" stop-color="rgb(17.660522%, 64.34021%, 36.862183%)" stop-opacity="1"/>
<stop offset="0.609375" stop-color="rgb(17.378235%, 64.13269%, 36.862183%)" stop-opacity="1"/>
<stop offset="0.625" stop-color="rgb(17.095947%, 63.923645%, 36.862183%)" stop-opacity="1"/>
<stop offset="0.640625" stop-color="rgb(16.81366%, 63.7146%, 36.862183%)" stop-opacity="1"/>
<stop offset="0.65625" stop-color="rgb(16.531372%, 63.505554%, 36.862183%)" stop-opacity="1"/>
<stop offset="0.671875" stop-color="rgb(16.249084%, 63.298035%, 36.862183%)" stop-opacity="1"/>
<stop offset="0.6875" stop-color="rgb(15.966797%, 63.088989%, 36.862183%)" stop-opacity="1"/>
<stop offset="0.703125" stop-color="rgb(15.684509%, 62.879944%, 36.862183%)" stop-opacity="1"/>
<stop offset="0.71875" stop-color="rgb(15.402222%, 62.670898%, 36.862183%)" stop-opacity="1"/>
<stop offset="0.734375" stop-color="rgb(15.119934%, 62.461853%, 36.862183%)" stop-opacity="1"/>
<stop offset="0.75" stop-color="rgb(14.837646%, 62.254333%, 36.862183%)" stop-opacity="1"/>
<stop offset="0.765625" stop-color="rgb(14.555359%, 62.045288%, 36.862183%)" stop-opacity="1"/>
<stop offset="0.78125" stop-color="rgb(14.273071%, 61.836243%, 36.862183%)" stop-opacity="1"/>
<stop offset="0.796875" stop-color="rgb(13.990784%, 61.627197%, 36.862183%)" stop-opacity="1"/>
<stop offset="0.8125" stop-color="rgb(13.708496%, 61.419678%, 36.862183%)" stop-opacity="1"/>
<stop offset="0.828125" stop-color="rgb(13.426208%, 61.210632%, 36.862183%)" stop-opacity="1"/>
<stop offset="0.84375" stop-color="rgb(13.143921%, 61.001587%, 36.862183%)" stop-opacity="1"/>
<stop offset="0.859375" stop-color="rgb(12.860107%, 60.792542%, 36.862183%)" stop-opacity="1"/>
<stop offset="0.875" stop-color="rgb(12.57782%, 60.583496%, 36.862183%)" stop-opacity="1"/>
<stop offset="0.890625" stop-color="rgb(12.295532%, 60.375977%, 36.862183%)" stop-opacity="1"/>
<stop offset="0.90625" stop-color="rgb(12.013245%, 60.166931%, 36.862183%)" stop-opacity="1"/>
<stop offset="0.921875" stop-color="rgb(11.730957%, 59.957886%, 36.862183%)" stop-opacity="1"/>
<stop offset="0.9375" stop-color="rgb(11.448669%, 59.74884%, 36.862183%)" stop-opacity="1"/>
<stop offset="0.953125" stop-color="rgb(11.166382%, 59.541321%, 36.862183%)" stop-opacity="1"/>
<stop offset="0.96875" stop-color="rgb(10.884094%, 59.332275%, 36.862183%)" stop-opacity="1"/>
<stop offset="0.984375" stop-color="rgb(10.601807%, 59.12323%, 36.862183%)" stop-opacity="1"/>
<stop offset="1" stop-color="rgb(10.328674%, 58.920288%, 36.862183%)" stop-opacity="1"/>
</linearGradient>
</defs>
<g clip-path="url(#clip-0)">
<path fill-rule="evenodd" fill="rgb(19.993591%, 19.993591%, 19.993591%)" fill-opacity="1" d="M 1651.121094 115.628906 C 804.046875 115.628906 115.632812 804.050781 115.632812 1651.121094 C 115.632812 2498.191406 804.046875 3186.601562 1651.121094 3186.601562 C 2498.191406 3186.601562 3186.601562 2498.191406 3186.601562 1651.121094 C 3189.308594 804.050781 2498.191406 115.628906 1651.121094 115.628906 Z M 1651.121094 3304.929688 C 742.207031 3304.929688 0 2562.71875 0 1651.121094 C 0 739.53125 742.207031 0 1651.121094 0 C 2560.039062 0 3302.25 742.210938 3302.25 1651.121094 C 3302.25 2560.039062 2562.71875 3304.929688 1651.121094 3304.929688 "/>
</g>
<path fill-rule="evenodd" fill="rgb(19.993591%, 19.993591%, 19.993591%)" fill-opacity="1" d="M 1651.121094 763.71875 C 1618.859375 763.71875 1591.96875 736.820312 1591.96875 704.550781 L 1591.96875 293.121094 C 1591.96875 260.839844 1618.859375 233.960938 1651.121094 233.960938 C 1683.390625 233.960938 1710.28125 260.839844 1710.28125 293.121094 L 1710.28125 707.25 C 1710.28125 739.511719 1683.390625 763.71875 1651.121094 763.71875 "/>
<path fill-rule="evenodd" fill="rgb(19.993591%, 19.993591%, 19.993591%)" fill-opacity="1" d="M 1691.449219 1626.929688 C 1678 1629.621094 1667.261719 1637.671875 1661.871094 1648.429688 C 1656.5 1659.179688 1653.808594 1672.621094 1656.5 1686.058594 C 1659.199219 1699.511719 1667.261719 1710.28125 1678 1715.671875 C 1688.769531 1721.019531 1702.21875 1723.730469 1715.671875 1721.019531 C 1729.109375 1718.339844 1739.859375 1710.28125 1745.238281 1699.511719 C 1750.628906 1688.769531 1753.300781 1675.320312 1750.628906 1661.871094 C 1747.921875 1648.429688 1739.859375 1637.671875 1729.109375 1632.300781 C 1715.671875 1624.238281 1704.898438 1624.238281 1691.449219 1626.929688 Z M 1702.21875 1836.671875 C 1672.640625 1836.671875 1645.75 1828.609375 1618.859375 1815.160156 C 1581.210938 1793.648438 1554.320312 1758.691406 1540.871094 1715.640625 C 1522.050781 1648.429688 1548.929688 1578.511719 1602.71875 1538.179688 L 1519.371094 1226.25 C 1511.289062 1193.96875 1530.128906 1164.398438 1559.699219 1156.328125 C 1591.980469 1148.261719 1621.558594 1167.089844 1629.621094 1196.660156 L 1721.019531 1508.601562 C 1745.238281 1511.289062 1766.75 1519.359375 1788.261719 1530.128906 C 1809.769531 1540.878906 1825.898438 1557.011719 1839.351562 1575.828125 L 1998.019531 1532.808594 C 2030.300781 1524.738281 2059.871094 1543.558594 2067.941406 1573.148438 C 2076 1605.421875 2057.171875 1634.988281 2027.589844 1643.058594 L 1868.949219 1686.089844 C 1866.25 1710.28125 1858.179688 1731.789062 1847.441406 1753.300781 C 1825.898438 1790.96875 1790.941406 1817.839844 1747.921875 1831.289062 C 1731.789062 1836.671875 1718.339844 1836.671875 1702.21875 1836.671875 "/>
<path fill-rule="evenodd" fill="rgb(19.993591%, 19.993591%, 19.993591%)" fill-opacity="1" d="M 3011.808594 1710.28125 L 2597.679688 1710.28125 C 2565.429688 1710.28125 2538.53125 1683.390625 2538.53125 1651.121094 C 2538.53125 1618.851562 2565.429688 1591.960938 2597.679688 1591.960938 L 3011.808594 1591.96875 C 3044.089844 1591.96875 3070.980469 1618.851562 3070.980469 1651.121094 C 3070.980469 1683.390625 3044.089844 1710.28125 3011.808594 1710.28125 "/>
<path fill-rule="evenodd" fill="rgb(19.993591%, 19.993591%, 19.993591%)" fill-opacity="1" d="M 1651.121094 3070.980469 C 1618.859375 3070.980469 1591.96875 3044.089844 1591.96875 3011.808594 L 1591.96875 2597.679688 C 1591.96875 2565.429688 1618.859375 2538.53125 1651.121094 2538.53125 C 1683.390625 2538.53125 1710.28125 2565.429688 1710.28125 2597.679688 L 1710.28125 3011.808594 C 1710.28125 3044.089844 1683.390625 3070.980469 1651.121094 3070.980469 "/>
<path fill-rule="evenodd" fill="rgb(19.993591%, 19.993591%, 19.993591%)" fill-opacity="1" d="M 707.246094 1710.28125 L 293.121094 1710.28125 C 260.839844 1710.28125 233.957031 1683.390625 233.957031 1651.121094 C 233.957031 1618.851562 260.839844 1591.960938 293.121094 1591.960938 L 707.246094 1591.96875 C 739.515625 1591.96875 766.410156 1618.851562 766.410156 1651.121094 C 766.410156 1683.390625 739.515625 1710.28125 707.246094 1710.28125 "/>
<path fill-rule="evenodd" fill="rgb(19.993591%, 19.993591%, 19.993591%)" fill-opacity="1" d="M 2124.410156 890.109375 C 2113.640625 890.109375 2105.578125 887.410156 2094.828125 882.039062 C 2067.941406 865.898438 2057.171875 830.941406 2073.320312 801.351562 L 2205.070312 572.78125 C 2221.199219 545.898438 2256.179688 535.140625 2285.75 551.269531 C 2312.648438 567.410156 2323.390625 602.371094 2307.269531 631.941406 L 2175.488281 860.519531 C 2164.75 879.351562 2145.921875 890.109375 2124.410156 890.109375 "/>
<path fill-rule="evenodd" fill="rgb(19.993591%, 19.993591%, 19.993591%)" fill-opacity="1" d="M 2471.289062 1237.011719 C 2452.488281 1237.011719 2430.980469 1226.25 2420.210938 1207.421875 C 2404.078125 1180.539062 2414.820312 1142.878906 2441.71875 1126.738281 L 2670.308594 994.980469 C 2697.179688 978.839844 2734.839844 989.601562 2750.96875 1016.5 C 2767.121094 1043.378906 2756.351562 1081.03125 2729.460938 1097.171875 L 2500.890625 1228.941406 C 2490.128906 1234.308594 2482.058594 1237.011719 2471.289062 1237.011719 "/>
<path fill-rule="evenodd" fill="rgb(19.993591%, 19.993591%, 19.993591%)" fill-opacity="1" d="M 2699.878906 2315.328125 C 2689.109375 2315.328125 2681.050781 2312.648438 2670.308594 2307.269531 L 2441.71875 2175.488281 C 2414.820312 2159.371094 2404.078125 2124.410156 2420.210938 2094.828125 C 2436.328125 2067.941406 2471.289062 2057.171875 2500.890625 2073.320312 L 2729.460938 2205.070312 C 2756.351562 2221.191406 2767.121094 2256.179688 2750.96875 2285.761719 C 2737.519531 2304.558594 2718.710938 2315.328125 2699.878906 2315.328125 "/>
<path fill-rule="evenodd" fill="rgb(19.993591%, 19.993591%, 19.993591%)" fill-opacity="1" d="M 2256.179688 2756.351562 C 2237.351562 2756.351562 2215.839844 2745.578125 2205.070312 2726.78125 L 2076 2500.898438 C 2059.871094 2474 2070.621094 2436.328125 2097.511719 2420.210938 C 2124.410156 2404.078125 2162.050781 2414.820312 2178.199219 2441.71875 L 2309.949219 2670.308594 C 2326.101562 2697.179688 2315.328125 2734.839844 2288.429688 2750.96875 C 2275.011719 2753.671875 2266.921875 2756.351562 2256.179688 2756.351562 "/>
<path fill-rule="evenodd" fill="rgb(19.993591%, 19.993591%, 19.993591%)" fill-opacity="1" d="M 1048.761719 2756.351562 C 1038.011719 2756.351562 1029.941406 2753.648438 1019.191406 2748.289062 C 992.292969 2732.160156 981.535156 2697.179688 997.675781 2667.601562 L 1129.441406 2439.039062 C 1145.578125 2412.140625 1180.539062 2401.378906 1210.109375 2417.5 C 1237.011719 2433.648438 1247.761719 2468.609375 1231.628906 2498.191406 L 1099.859375 2726.78125 C 1086.410156 2745.578125 1067.589844 2756.351562 1048.761719 2756.351562 "/>
<path fill-rule="evenodd" fill="rgb(19.993591%, 19.993591%, 19.993591%)" fill-opacity="1" d="M 605.0625 2315.328125 C 586.242188 2315.328125 564.71875 2304.558594 553.960938 2285.761719 C 537.835938 2258.859375 548.589844 2221.21875 575.488281 2205.070312 L 804.046875 2073.320312 C 830.945312 2057.171875 868.59375 2067.941406 884.734375 2094.828125 C 900.863281 2121.699219 890.105469 2159.371094 863.210938 2175.488281 L 634.636719 2307.269531 C 626.574219 2312.648438 615.816406 2315.328125 605.0625 2315.328125 "/>
<path fill-rule="evenodd" fill="rgb(19.993591%, 19.993591%, 19.993591%)" fill-opacity="1" d="M 833.636719 1237.011719 C 822.878906 1237.011719 814.816406 1234.308594 804.046875 1228.941406 L 575.488281 1097.171875 C 548.589844 1081.039062 537.835938 1046.070312 553.960938 1016.5 C 570.101562 989.601562 605.0625 978.839844 634.636719 994.980469 L 863.210938 1126.738281 C 890.105469 1142.871094 900.863281 1177.839844 884.734375 1207.421875 C 871.285156 1226.25 852.453125 1237.011719 833.636719 1237.011719 "/>
<path fill-rule="evenodd" fill="rgb(19.993591%, 19.993591%, 19.993591%)" fill-opacity="1" d="M 1180.539062 890.109375 C 1161.71875 890.109375 1140.191406 879.351562 1129.441406 860.519531 L 997.675781 631.941406 C 981.535156 605.058594 992.292969 567.410156 1019.191406 551.269531 C 1046.078125 535.140625 1083.71875 545.898438 1099.859375 572.78125 L 1231.628906 801.351562 C 1247.761719 828.25 1237.011719 865.898438 1210.109375 882.039062 C 1199.351562 887.410156 1188.601562 890.109375 1180.539062 890.109375 "/>
<g clip-path="url(#clip-1)">
<g clip-path="url(#clip-2)">
<path fill-rule="nonzero" fill="url(#linear-pattern-0)" d="M 1753.300781 1723.730469 L 1753.300781 1624.238281 L 1653.808594 1624.238281 L 1653.808594 1723.730469 Z M 1753.300781 1723.730469 "/>
</g>
</g>
<g clip-path="url(#clip-3)">
<g clip-path="url(#clip-4)">
<path fill-rule="nonzero" fill="url(#linear-pattern-1)" d="M 3189.308594 3186.601562 L 3189.308594 115.628906 L 115.632812 115.628906 L 115.632812 3186.601562 Z M 3189.308594 3186.601562 "/>
</g>
</g>
</svg>
