<svg xmlns="http://www.w3.org/2000/svg" xml:space="preserve" id="clock" x="0" y="0" style="enable-background:new 0 0 512 512" version="1.1" viewBox="0 0 512 512">
  <g>
    <circle cx="256" cy="256" r="229.9" style="fill:#fbb03a"></circle>
    <g>
      <path d="M445.1,256c0,2.7-0.1,5.5-0.2,8.2C440.8,362,362,440.8,264.2,445c-2.7,0.1-5.4,0.2-8.2,0.2
			c-2.7,0-5.5-0.1-8.2-0.2C150,440.8,71.2,362,67,264.2c-0.1-2.7-0.2-5.4-0.2-8.2c0-2.7,0.1-5.5,0.2-8.2C71.2,150,150,71.2,247.8,67
			c2.7-0.1,5.4-0.2,8.2-0.2c2.7,0,5.5,0.1,8.2,0.2C362,71.2,440.8,150,445,247.8C445.1,250.5,445.1,253.3,445.1,256z" style="fill:#f2f2f3"></path>
      <g>
        <path d="M264.2 67v23.4c0 4.5-3.7 8.2-8.2 8.2-4.5 0-8.2-3.6-8.2-8.2V67c2.7-.1 5.4-.2 8.2-.2C258.8 66.9 261.5 66.9 264.2 67zM264.2 421.6V445c-2.7.1-5.4.2-8.2.2-2.7 0-5.5-.1-8.2-.2v-23.4c0-4.5 3.6-8.2 8.2-8.2C260.5 413.4 264.2 417.1 264.2 421.6zM98.6 256c0 4.5-3.7 8.2-8.2 8.2H67c-.1-2.7-.2-5.4-.2-8.2 0-2.7.1-5.5.2-8.2h23.4C94.9 247.8 98.6 251.5 98.6 256zM445.1 256c0 2.7-.1 5.5-.2 8.2h-23.4c-4.5 0-8.2-3.7-8.2-8.2 0-4.5 3.7-8.2 8.2-8.2H445C445.1 250.5 445.1 253.3 445.1 256z" style="fill:#272361"></path>
      </g>
    </g>
    <g>
      <path d="M256,264.2c-2.1,0-4.2-0.8-5.8-2.4L138.7,150.3c-3.2-3.2-3.2-8.4,0-11.5c3.2-3.2,8.4-3.2,11.5,0l97.6,97.6
			v-91.6c0-4.5,3.7-8.2,8.2-8.2c4.5,0,8.2,3.7,8.2,8.2V256c0,3.3-2,6.3-5,7.5C258.1,264,257.1,264.2,256,264.2z" style="fill:#272361"></path>
    </g>
  </g>
</svg>
